HIERARCHY
ROOT Hips
{
	OFFSET 0.00000 0.00000 0.00000
	CHANNELS 6 Xposition Yposition Zposition Zrotation Yrotation Xrotation 
	JOINT RightUpLegDummy
	{
		OFFSET 0 0 0
		CHANNELS 3 Zrotation Yrotation Xrotation
		JOINT RightUpLeg
		{
			OFFSET -3.52197 -3.41223 0.04002
			CHANNELS 3 Zrotation Yrotation Xrotation
			JOINT RightLeg
			{
				OFFSET 0.00006 -17.42390 1.60435
				CHANNELS 3 Zrotation Yrotation Xrotation
				JOINT RightFoot
				{
					OFFSET 0.06153 -16.50078 -1.63901
					CHANNELS 3 Zrotation Yrotation Xrotation
					JOINT RightToes
					{
						OFFSET 0.00298 -1.73825 3.34613
						CHANNELS 3 Zrotation Yrotation Xrotation
						End Site
						{
							OFFSET 0.00480 -0.05416 3.85043
						}
					}
				}
			}
		}
	}
	JOINT SpineDummy
	{
		OFFSET 0 0 0
		CHANNELS 3 Zrotation Yrotation Xrotation
		JOINT Spine
		{
			OFFSET 0.00000 4.68130 0.00000
			CHANNELS 3 Zrotation Yrotation Xrotation
			JOINT Spine1
			{
				OFFSET -0.00000 10.10138 0.05002
				CHANNELS 3 Zrotation Yrotation Xrotation
				JOINT HEadDummy
				{
					OFFSET 0 0 0
					CHANNELS 3 Zrotation Yrotation Xrotation
					JOINT Head
					{
						OFFSET -0.00000 3.43865 0.00438
						CHANNELS 3 Zrotation Yrotation Xrotation
						End Site
						{
							OFFSET -0.11417 5.02924 0.98962
						}
					}
				}
				JOINT LeftShoulder1Dummy
				{
					OFFSET 0 0 0
					CHANNELS 3 Zrotation Yrotation Xrotation
					JOINT LeftShoulder1
					{
						OFFSET 3.53937 -0.14262 -0.08662
						CHANNELS 3 Zrotation Yrotation Xrotation
						JOINT LeftArm
						{
							OFFSET 4.04833 -0.00133 0.12681
							CHANNELS 3 Zrotation Yrotation Xrotation
							JOINT LeftForeArm
							{
								OFFSET 10.33880 -0.01036 -0.55515
								CHANNELS 3 Zrotation Yrotation Xrotation
								JOINT LeftHand
								{
									OFFSET 8.69677 0.07543 0.40060
									CHANNELS 3 Zrotation Yrotation Xrotation
									End Site
									{
										OFFSET 5.28377 -0.21905 0.59205
									}
								}
							}
						}
					}
				}
				JOINT RightShoulderDummy
				{
					OFFSET 0 0 0
					CHANNELS 3 Zrotation Yrotation Xrotation
					JOINT RightShoulder
					{
						OFFSET -3.53937 -0.14262 -0.08660
						CHANNELS 3 Zrotation Yrotation Xrotation
						JOINT RightArm
						{
							OFFSET -4.04833 -0.00133 0.12683
							CHANNELS 3 Zrotation Yrotation Xrotation
							JOINT RightForeArm
							{
								OFFSET -10.37987 -0.01039 -0.55511
								CHANNELS 3 Zrotation Yrotation Xrotation
								JOINT RightHand
								{
									OFFSET -8.67398 0.07538 0.40058
									CHANNELS 3 Zrotation Yrotation Xrotation
									End Site
									{
										OFFSET -5.24810 -0.21916 0.59204
									}
								}
							}
						}
					}
				}
			}
		}
	}
	JOINT LeftUpLegDummy
	{
		OFFSET 0 0 0
		CHANNELS 3 Zrotation Yrotation Xrotation
		JOINT LeftUpLeg
		{
			OFFSET 3.52197 -3.41223 0.04002
			CHANNELS 3 Zrotation Yrotation Xrotation
			JOINT LeftLeg
			{
				OFFSET -0.00012 -17.42399 1.60337
				CHANNELS 3 Zrotation Yrotation Xrotation
				JOINT LeftFoot
				{
					OFFSET -0.09972 -16.50070 -1.63802
					CHANNELS 3 Zrotation Yrotation Xrotation
					JOINT LeftToes
					{
						OFFSET -0.01575 -1.73823 3.34611
						CHANNELS 3 Zrotation Yrotation Xrotation
						End Site
						{
							OFFSET 0.03150 -0.01868 3.85031
						}
					}
				}
			}
		}
	}
}
MOTION
Frames: 6
Frame Time: 0.033333
-12.3380 38.7376 31.5484 179.2640 -28.7501 176.3070 0.0000 0.0000 0.0000 7.0468 5.4077 -17.4294 -0.1779 -11.7479 -1.4635 9.7613 -0.3452 -7.6847 0.0000 -0.0000 -0.0000 0.0000 0.0000 0.0000 -7.7053 -5.7751 7.3162 11.3325 -8.2028 -0.5894 -0.0000 0.0000 -0.0000 1.9707 -5.6284 -12.9892 -0.0000 0.0000 -0.0000 -33.9914 -3.2280 2.6937 -43.7322 -17.2034 -16.8786 -10.8320 5.1501 47.1629 14.3315 -4.6879 -1.2090 -0.0000 0.0000 -0.0000 33.9575 4.9515 3.3794 39.5925 -1.5197 -20.9282 9.5303 3.4357 16.9547 -10.4833 1.7657 -0.6312 0.0000 0.0000 0.0000 -6.0800 3.3584 15.2985 -3.2727 1.0578 9.9914 5.8670 0.2572 -14.6351 0.0000 0.0000 -0.0000
-13.3203 38.5819 30.5100 179.2050 -29.9138 176.4680 0.0000 0.0000 0.0000 7.2744 5.1873 -17.0113 -0.8500 -12.5730 1.1554 6.0651 -0.2471 -6.9319 0.0000 -0.0000 -0.0000 0.0000 0.0000 0.0000 -7.3817 -6.2256 6.4153 11.1272 -8.5922 -0.0576 -0.0000 0.0000 -0.0000 1.7123 -5.8795 -12.9835 -0.0000 0.0000 -0.0000 -34.2415 -3.2674 2.7266 -44.0372 -16.7589 -17.6166 -10.4035 5.1363 47.8306 13.6430 -4.7855 -1.1593 -0.0000 0.0000 -0.0000 33.8713 4.9285 3.3629 39.1989 -1.7865 -21.5083 9.3706 2.6059 16.8901 -10.4904 1.6806 -0.6246 0.0000 0.0000 0.0000 -5.1699 6.5874 16.7504 -4.1669 -3.4290 11.7487 6.0422 0.2161 -13.9008 0.0000 0.0000 -0.0000
-14.3340 38.5111 29.4199 179.6470 -31.4531 176.3380 0.0000 0.0000 0.0000 7.6302 4.8591 -16.4526 -1.4289 -12.8376 3.5355 0.8059 -0.0642 -3.7354 0.0000 -0.0000 -0.0000 0.0000 0.0000 0.0000 -6.5160 -6.8275 5.2037 10.8570 -9.1010 0.6362 -0.0000 0.0000 -0.0000 1.4021 -6.3888 -12.8334 -0.0000 0.0000 -0.0000 -34.6181 -3.3001 2.7657 -44.2957 -16.2735 -18.4693 -9.9029 5.1190 48.6325 13.1679 -4.7373 -1.1119 -0.0000 0.0000 -0.0000 33.9074 4.9291 3.3662 38.6721 -2.3967 -22.0587 9.2226 2.0851 16.6314 -10.4672 1.3100 -0.5926 0.0000 0.0000 0.0000 -2.8622 12.0274 18.1602 -5.1700 -10.5666 14.3677 6.6394 0.1116 -12.0858 0.0000 0.0000 -0.0000
-15.3331 38.4262 28.3428 -179.4800 -32.3476 175.8970 0.0000 0.0000 0.0000 8.1309 4.5280 -16.6088 -2.0262 -12.6265 7.0569 -2.0089 0.1880 -0.1285 0.0000 -0.0000 -0.0000 0.0000 0.0000 0.0000 -5.0225 -7.0158 4.2240 10.4622 -9.1411 0.8853 -0.0000 0.0000 -0.0000 1.1898 -7.0312 -12.3765 -0.0000 0.0000 -0.0000 -34.8943 -3.2820 2.7775 -44.6697 -15.7964 -19.2879 -9.3616 5.0904 49.8086 13.0433 -4.6769 -1.0946 -0.0000 0.0000 -0.0000 34.0053 4.9442 3.3805 38.1259 -3.2362 -22.6102 9.0815 1.7213 16.1170 -10.4047 0.6048 -0.5311 0.0000 0.0000 0.0000 0.1770 17.0691 18.3416 -7.0652 -16.2335 19.7064 4.0843 0.0073 -9.8047 0.0000 0.0000 -0.0000
-16.2530 38.3368 27.3536 -178.4960 -31.9489 175.1260 0.0000 0.0000 0.0000 8.7473 4.0728 -16.4227 -2.1398 -11.6244 10.6191 -2.0323 0.2477 2.0923 0.0000 -0.0000 -0.0000 0.0000 0.0000 0.0000 -3.3678 -6.5604 4.2692 10.0901 -8.5271 0.3625 -0.0000 0.0000 -0.0000 1.1219 -7.3960 -11.7630 -0.0000 0.0000 -0.0000 -34.7768 -3.2189 2.7437 -45.2805 -15.0442 -19.6663 -9.0986 5.0782 50.3140 12.9884 -4.6627 -1.0884 -0.0000 0.0000 -0.0000 33.9401 4.9359 3.3717 37.8162 -3.5448 -23.1875 8.8885 0.8693 16.0252 -10.3414 0.1885 -0.4939 0.0000 0.0000 0.0000 2.9876 19.0370 16.9512 -10.5116 -17.0209 27.4682 -4.6981 0.3239 -5.4193 0.0000 0.0000 -0.0000
-17.0557 38.2049 26.4608 -177.7770 -31.0589 174.2270 0.0000 0.0000 0.0000 9.4736 3.4300 -16.0073 -2.2123 -10.0363 14.6331 -2.6276 0.2983 1.5142 0.0000 -0.0000 -0.0000 0.0000 0.0000 0.0000 -2.4994 -5.9819 5.3397 10.1394 -7.8629 -0.5244 -0.0000 0.0000 -0.0000 1.1904 -7.3900 -11.3246 -0.0000 0.0000 -0.0000 -34.3637 -3.1861 2.7022 -45.7957 -13.9243 -19.2399 -9.4594 5.1042 49.3050 12.7646 -4.6869 -1.0712 -0.0000 0.0000 -0.0000 33.6861 4.8984 3.3352 37.8725 -2.8553 -23.6513 8.6524 -0.3596 16.7664 -10.3315 0.5042 -0.5191 0.0000 0.0000 0.0000 5.5087 20.7267 14.0410 -13.7085 -15.7585 37.0865 -15.7088 1.8244 1.8500 0.0000 0.0000 -0.0000
